<?xml version="1.0" encoding="utf-8" ?>
<svg baseProfile="full" height="200mm" version="1.1" viewBox="0,0,200,200" width="200mm" xmlns="http://www.w3.org/2000/svg" xmlns:ev="http://www.w3.org/2001/xml-events" xmlns:xlink="http://www.w3.org/1999/xlink"><defs /><rect fill="#1a1a1a" height="200" width="200" x="0" y="0" /><rect fill="#1a1a1a" height="200" width="180" x="10" y="0" /><text alignment-baseline="middle" fill="#e1ed5e" style="dominant-baseline: central; font-size:9.0px; font-family:Arial;" text-anchor="middle" x="100.0" y="100.0">2025</text><line stroke="#e1ed5e" stroke-width="0.3" x1="100.0" x2="100.0" y1="15.0" y2="10.0" /><path d="M 100.0 14.0 a86.0,86.0 0 0,1 42.46469731375804,11.215312516191453" fill="none" id="id25" stroke="none" /><text fill="#e1ed5e" style="font-size:6.75px; font-family:Arial;" text-anchor="middle"><textPath startOffset="22.20632615414155" xlink:href="#id25">January</textPath></text><line stroke="#e1ed5e" stroke-width="0.3" x1="143.23703022742887" x2="145.7803849466894" y1="26.81831364943548" y2="22.513508569990506" /><path d="M 143.74570117128098 25.957352633546492 a86.0,86.0 0 0,1 28.547481713284135,27.462654790039103" fill="none" id="id26" stroke="none" /><text fill="#e1ed5e" style="font-size:6.75px; font-family:Arial;" text-anchor="middle"><textPath startOffset="19.985693538727396" xlink:href="#id26">February</textPath></text><line stroke="#e1ed5e" stroke-width="0.3" x1="172.23445277983987" x2="176.4835382374775" y1="55.19839476539836" y2="52.563006222186495" /><path d="M 173.08426987136738 54.67131705675599 a86.0,86.0 0 0,1 12.851231095245387,41.99856678651699" fill="none" id="id27" stroke="none" /><text fill="#e1ed5e" style="font-size:6.75px; font-family:Arial;" text-anchor="middle"><textPath startOffset="22.20632615414155" xlink:href="#id27">March</textPath></text><line stroke="#e1ed5e" stroke-width="0.3" x1="184.98032266829074" x2="189.97916517819016" y1="98.17113171792111" y2="98.06355123074" /><path d="M 185.9800911702706 98.14961562048488 a86.0,86.0 0 0,1 -9.607161424134198,41.387399972396054" fill="none" id="id28" stroke="none" /><text fill="#e1ed5e" style="font-size:6.75px; font-family:Arial;" text-anchor="middle"><textPath startOffset="21.466115282336823" xlink:href="#id28">April</textPath></text><line stroke="#e1ed5e" stroke-width="0.3" x1="174.80103733775053" x2="179.2010983576182" y1="140.37084112569926" y2="142.7455964860345" /><path d="M 175.68104954172406 140.8457921977663 a86.0,86.0 0 0,1 -30.038265399797805,32.042727171017184" fill="none" id="id29" stroke="none" /><text fill="#e1ed5e" style="font-size:6.75px; font-family:Arial;" text-anchor="middle"><textPath startOffset="22.206326154141568" xlink:href="#id29">May</textPath></text><path d="M 114.29624159901734 115.38237550388516 l 3.302588906905572 3.553497774161778 a25.85123076332063,25.85123076332063 0 0,0 -0.32855738750315916,0.3001293834636676 l -3.240931969935549 -3.6098199242120286" fill="red" stroke="none" /><path d="M 113.48314897796784 116.09983520530334 l 6.869931489629038 8.203184955939113 a31.69991598534972,31.69991598534972 0 0,0 -0.42135207019689325,0.34674406826915183 l -6.727709290887454 -8.320224143065444" fill="red" stroke="none" /><path d="M 112.92097659922987 116.55440617244103 l 3.5066655459454896 4.492753725902289 a26.69925778437246,26.69925778437246 0 0,0 -0.3647261918515673,0.2796564911891068 l -3.4288106256004287 -4.552449558918767" fill="red" stroke="none" /><path d="M 112.34349029814194 116.9893568818739 l 7.988209103594199 10.994826587130293 a34.59035306251506,34.59035306251506 0 0,0 -0.48471407744556305,0.34583062430044853 l -7.797767698299752 -11.130701473274959" fill="red" stroke="none" /><line stroke="#e1ed5e" stroke-width="0.3" x1="143.8653032363475" x2="146.44561519142675" y1="172.8068346515853" y2="177.08958963109032" /><path d="M 144.38136562736335 173.6633856474863 a86.0,86.0 0 0,1 -40.68145358897372,12.25698825130547" fill="none" id="id30" stroke="none" /><text fill="#e1ed5e" style="font-size:6.75px; font-family:Arial;" text-anchor="middle"><textPath startOffset="21.466115282336833" xlink:href="#id30">June</textPath></text><line stroke="#e1ed5e" stroke-width="0.3" x1="102.19456741930631" x2="102.32365962044197" y1="184.97166512339345" y2="189.96999836594603" /><path d="M 102.22038585953345 185.97133177190398 a86.0,86.0 0 0,1 -42.740103519485714,-10.115201625700543" fill="none" id="id31" stroke="none" /><text fill="#e1ed5e" style="font-size:6.75px; font-family:Arial;" text-anchor="middle"><textPath startOffset="22.20632615414155" xlink:href="#id31">July</textPath></text><path d="M 99.45781275523022 120.99299961872073 l -0.11521014158320707 4.46083245531901 a25.462319976329695,25.462319976329695 0 0,0 -0.43804847650457635,-0.015087275238322349 l 0.19197896976242645 -4.458188381654594" fill="red" stroke="none" /><path d="M 99.09653310690486 120.98055641714683 l -0.17478437347394843 4.058890742463195 a25.062652290864197,25.062652290864197 0 0,0 -0.43085316734314194,-0.022270187371393777 l 0.2446256092305793 -4.055280748329599" fill="red" stroke="none" /><path d="M 94.46302465271185 120.25689768951611 l -2.578367647836709 9.432899077971715 a30.778934744777196,30.778934744777196 0 0,0 -0.5098586703166645,-0.14409115307209314 l 2.740357486257987 -9.387119131561102" fill="red" stroke="none" /><path d="M 94.11515582081647 120.15858648285463 l -5.154579972908063 17.657059898750624 a39.39406042626729,39.39406042626729 0 0,0 -0.6492985796163936,-0.19562833576095368 l 5.4577535269647015 -17.565716193883947" fill="red" stroke="none" /><path d="M 93.76903079525671 120.05430185196036 l -9.253275726340984 29.78156020963757 a52.18596543620157,52.18596543620157 0 0,0 -0.8555482850241025,-0.2739195435403544 l 9.764545356456027 -29.617867819437507" fill="red" stroke="none" /><path d="M 92.7421414339146 119.70592522655815 l -3.4108176029207455 9.260764181691227 a30.868912298186117,30.868912298186117 0 0,0 -0.49703326194075514,-0.1879354502203793 l 3.5697210856217834 -9.200680481364214" fill="red" stroke="none" /><path d="M 92.40401165467489 119.57807347666478 l -3.165474429514876 8.158765936981336 a29.75132504129286,29.75132504129286 0 0,0 -0.47584966862849365,-0.18935040356521915 l 3.3054451741852278 -8.10306868901005" fill="red" stroke="none" /><path d="M 92.06813273071674 119.44442032107085 l -2.105914385234806 5.162502482267996 a26.57550959799749,26.57550959799749 0 0,0 -0.4220805204443469,-0.1764296917774814 l 2.1944663651766154 -5.125487747470541" fill="red" stroke="none" /><path d="M 91.40352486487194 119.15986991738527 l -12.786993873513522 28.499720571491196 a52.23685779610924,52.23685779610924 0 0,0 -0.8172133136460986,-0.3751425505130277 l 13.275675182927039 -28.275390950644095" fill="red" stroke="none" /><line stroke="#e1ed5e" stroke-width="0.3" x1="58.666819895761336" x2="56.23545636021788" y1="174.27360380694188" y2="178.64263932499728" /><path d="M 58.180547188652646 175.14741091055294 a86.0,86.0 0 0,1 -31.652253787137756,-30.449443065178592" fill="none" id="id32" stroke="none" /><text fill="#e1ed5e" style="font-size:6.75px; font-family:Arial;" text-anchor="middle"><textPath startOffset="22.20632615414155" xlink:href="#id32">August</textPath></text><path d="M 88.8546689885994 117.79835938074946 l -1.9558247874384118 3.123323337548164 a24.68515932763178,24.68515932763178 0 0,0 -0.35819129840478736,-0.2286146338766602 l 2.0092978878901224 -3.0891942748476997" fill="red" stroke="none" /><path d="M 88.54995079064634 117.60387380957326 l -4.624651896987975 7.110169303139212 a29.481857855895583,29.481857855895583 0 0,0 -0.4230299857206362,-0.2803612074155623 l 4.746356581448572 -7.0295100746323325" fill="red" stroke="none" /><path d="M 88.24862548938628 117.40417183066458 l -4.900391437973281 7.257640759127705 a29.757121994920112,29.757121994920112 0 0,0 -0.4220454247439867,-0.29028669155455816 l 5.024593747340158 -7.172213278208046" fill="red" stroke="none" /><path d="M 85.44109423537348 115.13401014063109 l -8.132689120104855 8.453945756920312 a32.73072168219939,32.73072168219939 0 0,0 -0.40266588120813507,-0.3940933146959111 l 8.277004953688785 -8.312702339301831" fill="red" stroke="none" /><path d="M 84.9287848128048 114.62390073753433 l -5.958935149937983 5.782073645138822 a29.30308880832762,29.30308880832762 0 0,0 -0.3481394610494444,-0.36502283306711863 l 6.057581162366385 -5.678643695489203" fill="red" stroke="none" /><path d="M 84.19399662182784 113.82643327865904 l -9.614154996238891 8.41006226594617 a33.773453863728356,33.773453863728356 0 0,0 -0.37899844669777666,-0.4408608164028304 l 9.757495952507448 -8.243324350381808" fill="red" stroke="none" /><path d="M 83.95833913139862 113.55231037782056 l -9.309779617068404 7.865084790975181 a33.18735226731432,33.18735226731432 0 0,0 -0.3649091614983424,-0.43955659235017014 l 9.443784778460284 -7.7036669415112495" fill="red" stroke="none" /><path d="M 83.72743513129214 113.27417163493432 l -3.9272599855352817 3.203620543142107 a26.068190562560638,26.068190562560638 0 0,0 -0.2806452833969275,-0.35014814222267837 l 3.98182318098707 -3.1355445673411695" fill="red" stroke="none" /><path d="M 83.06392112726016 112.41649034213515 l -4.189744161033551 3.071662472901223 a26.19510023794964,26.19510023794964 0 0,0 -0.26347307195245223,-0.36594105293587226 l 4.241997025361611 -2.999087814514213" fill="red" stroke="none" /><path d="M 82.24976979558568 111.22182372390057 l -5.742906818793132 3.630707164984034 a27.79433685117297,27.79433685117297 0 0,0 -0.2521811422442121,-0.406596297521427 l 5.8045526007053 -3.531314536097343" fill="red" stroke="none" /><line stroke="#e1ed5e" stroke-width="0.3" x1="26.63291911575756" x2="22.317208475507996" y1="142.92168965132927" y2="145.44649492493687" /><path d="M 25.769776987707644 143.4266507060508 a86.0,86.0 0 0,1 -11.730757126820373,-40.83630448921669" fill="none" id="id33" stroke="none" /><text fill="#e1ed5e" style="font-size:6.75px; font-family:Arial;" text-anchor="middle"><textPath startOffset="21.46611528233685" xlink:href="#id33">September</textPath></text><path d="M 81.69416730710424 110.29060199501025 l -5.307235504809501 2.98345610330947 a27.088329740075277,27.088329740075277 0 0,0 -0.2249925588202475,-0.40842684776518484 l 5.3578044730812655 -2.8916587371464626" fill="red" stroke="none" /><path d="M 80.20201598880116 107.00284435728193 l -12.068256351688333 4.268723565331082 a33.800969191716646,33.800969191716646 0 0,0 -0.18930018571196808,-0.5501949491317359 l 12.139947368343531 -4.060355913110049" fill="red" stroke="none" /><path d="M 79.4281124754447 104.21870165774334 l -54.01101203871737 11.076103043639314 a76.13501138187775,76.13501138187775 0 0,0 -0.2522246592731254,-1.286088103678388 l 54.19366663096616 -10.144751212892972" fill="red" stroke="none" /><path d="M 79.35854240842038 103.8639653848113 l -5.901503045110262 1.104728354744034 a27.004012235932,27.004012235932 0 0,0 -0.08159526892790307,-0.45762960046376494 l 5.919644756377354 -1.0029800035470553" fill="red" stroke="none" /><path d="M 79.23777060512086 103.15116336523772 l -36.80726328958445 5.586379836522029 a58.22878282386749,58.22878282386749 0 0,0 -0.1418729014919781,-0.9922587425995647 l 36.897970242093024 -4.951975621942064" fill="red" stroke="none" /><path d="M 79.10278846688536 102.07522291339032 l -14.286372201306227 1.418725502892695 a35.35664350490091,35.35664350490091 0 0,0 -0.054929750887376866,-0.6061452238198943 l 14.308676548470679 -1.1725988905242346" fill="red" stroke="none" /><path d="M 79.07016306316243 101.71520430193888 l -8.201181022698702 0.6720884168167701 a29.228673830398954,29.228673830398954 0 0,0 -0.03677724515603921,-0.5017962904968071 l 8.211534826519076 -0.5308189898232024" fill="red" stroke="none" /><line stroke="#e1ed5e" stroke-width="0.3" x1="15.007084014347285" x2="10.007500721073583" y1="101.09737516637583" y2="101.16192664675087" /><path d="M 14.007167355692545 101.11028546245083 a86.0,86.0 0 0,1 10.666146001902534,-42.60595125391555" fill="none" id="id34" stroke="none" /><text fill="#e1ed5e" style="font-size:6.75px; font-family:Arial;" text-anchor="middle"><textPath startOffset="22.20632615414155" xlink:href="#id34">October</textPath></text><path d="M 79.00019446554 99.90962569577889 l -13.746154270980496 -0.05915764914667759 a34.74628156517419,34.74628156517419 0 0,0 0.007721935654786634,-0.5980724263348717 l 13.743099328207993 0.2957663335420212" fill="red" stroke="none" /><path d="M 79.05617556472873 98.46500227214037 l -4.061571818131111 -0.2976774147261526 a25.072465773591585,25.072465773591585 0 0,0 0.03525130923253733,-0.4301552609290172 l 4.055846025079076 0.36754659286294816" fill="red" stroke="none" /><path d="M 79.32604984820605 96.31383870115002 l -4.199558872674535 -0.7487805317820052 a25.265790314799258,25.265790314799258 0 0,0 0.08002551203019534,-0.42749948519438014 l 4.186047636734478 0.8209580944389581" fill="red" stroke="none" /><path d="M 79.3925641242962 95.95851677861259 l -6.8568669474574495 -1.344753072948177 a27.987487757580546,27.987487757580546 0 0,0 0.09678433650123662,-0.47195479703752463 l 6.832703315041218 1.462583526149104" fill="red" stroke="none" /><path d="M 79.46518482838121 95.60439243477599 l -9.495787633511782 -2.0326336327250494 a30.71090017792585,30.71090017792585 0 0,0 0.11510096305823272,-0.5159750483592516 l 9.45939228345151 2.19578685063426" fill="red" stroke="none" /><path d="M 79.54389044137918 95.25157060432595 l -3.7292962965531884 -0.8656729232401232 a24.828451446409687,24.828451446409687 0 0,0 0.10022087157011773,-0.41548021491885595 l 3.713842624722256 0.929738369818376" fill="red" stroke="none" /><path d="M 79.62865764111835 94.90015583598534 l -7.146505833134785 -1.789085148349052 a28.367046307107934,28.367046307107934 0 0,0 0.12265865993763106,-0.47265385235609375 l 7.114650841326846 1.9118354262540094" fill="red" stroke="none" /><path d="M 79.81627453868168 94.20196356495316 l -15.767713551694868 -4.529479844804501 a37.40539479295735,37.40539479295735 0 0,0 0.18309780956783234,-0.617314791065859 l 15.68740984501533 4.8002240226168995" fill="red" stroke="none" /><path d="M 80.38941819471856 92.48833698450439 l -3.9706939146739377 -1.5209398130491458 a25.252019294282025,25.252019294282025 0 0,0 0.15897522996267002,-0.4045746199977414 l 3.9439251348295765 1.5890634379426507" fill="red" stroke="none" /><path d="M 80.52162464483688 92.15188598940014 l -6.774046282938974 -2.729359434358225 a28.303225723289646,28.303225723289646 0 0,0 0.1859633971894583,-0.4503251167786211 l 6.726061198863316 2.8455591215901572" fill="red" stroke="none" /><path d="M 80.803312248108 91.48605970444005 l -5.918185684693788 -2.6247798697748963 a27.47413246414452,27.47413246414452 0 0,0 0.19545579683738828,-0.4306609396835208 l 5.872127570893048 2.7262628183004884" fill="red" stroke="none" /><path d="M 80.95270993114464 91.15688171328213 l -4.995473841877547 -2.319257276086773 a26.507605034637493,26.507605034637493 0 0,0 0.19570414102379416,-0.41220283177457556 l 4.954811507012002 2.404902523501881" fill="red" stroke="none" /><path d="M 81.10775173730289 90.83032412892265 l -4.9659394694884496 -2.4103036704482723 a26.519974510665755,26.519974510665755 0 0,0 0.2028651600890081,-0.4089637837395738 l 4.923714296446028 2.4954270426868077" fill="red" stroke="none" /><path d="M 81.6062741919709 89.86733742301443 l -55.18117742408733 -30.39798773095671 a84.0,84.0 0 0,0 0.7085694348302773,-1.2604659602608617 l 54.64975034796462 31.34333720115236" fill="red" stroke="none" /><line stroke="#e1ed5e" stroke-width="0.3" x1="26.266209847984243" x2="21.928928074336255" y1="57.711370442889674" y2="55.22380399835377" /><path d="M 25.398753493254645 57.213857153982495 a86.0,86.0 0 0,1 29.58750427330803,-30.492523968695096" fill="none" id="id35" stroke="none" /><text fill="#e1ed5e" style="font-size:6.75px; font-family:Arial;" text-anchor="middle"><textPath startOffset="21.46611528233685" xlink:href="#id35">November</textPath></text><path d="M 81.78341655067845 89.55222093294921 l -19.902035421475134 -11.414438368569899 a43.94298187218766,43.94298187218766 0 0,0 0.38196981979494016,-0.6529102393658225 l 19.70260592720987 11.755328020289612" fill="red" stroke="none" /><path d="M 81.96595687620814 89.24020034530311 l -15.256139214603634 -9.102395970027207 a38.76522997685463,38.76522997685463 0 0,0 0.3468273470691688,-0.5700929664710421 l 15.097196069248248 9.363656709705323" fill="red" stroke="none" /><path d="M 83.17141714833178 87.43820079747576 l -15.406354944879753 -11.50016843166393 a40.22523463170893,40.22523463170893 0 0,0 0.4189631725754834,-0.5513064247982665 l 15.20611583208016 11.763659632343222" fill="red" stroke="none" /><path d="M 83.39014120810768 87.1503855733568 l -26.530479558851567 -20.52434263026887 a54.542733729189585,54.542733729189585 0 0,0 0.5808695157991824,-0.7376452968420711 l 26.173255962458413 20.977980321063985" fill="red" stroke="none" /><path d="M 83.84228863543731 86.58626213691792 l -5.267239795508967 -4.372734002038758 a27.845773712005037,27.845773712005037 0 0,0 0.30933921267857234,-0.36616005720109635 l 5.19118996934327 4.46275300886897" fill="red" stroke="none" /><path d="M 86.65592168130627 83.78471172551755 l -13.843331909453303 -16.82196493681108 a42.78569123738307,42.78569123738307 0 0,0 0.572710114137953,-0.46309174964745375 l 13.55171839675085 17.05776278372267" fill="red" stroke="none" /><path d="M 86.93701828274178 83.55741782278169 l -8.067373047881931 -10.154530348827297 a33.969078398211124,33.969078398211124 0 0,0 0.4609562607013035,-0.3597836730444181 l 7.891384232021202 10.291892411094938" fill="red" stroke="none" /><path d="M 87.80319425747018 82.90503203632743 l -5.169201207791266 -7.245120641450861 a29.900135630191713,29.900135630191713 0 0,0 0.42154757534880266,-0.2953210158626503 l 5.043722492858803 7.333026500077454" fill="red" stroke="none" /><path d="M 88.09926311788651 82.69761687909137 l -18.329329715039716 -26.648861177304685 a53.34387314237265,53.34387314237265 0 0,0 0.7610273321727583,-0.5138490518358639 l 17.867897688460417 26.960422141439214" fill="red" stroke="none" /><path d="M 88.39885842347998 82.49532879139004 l -7.060851268006654 -10.653941173298623 a33.78131773930289,33.78131773930289 0 0,0 0.48746919940318933,-0.3170635271297707 l 6.876415042819177 10.773903624587929" fill="red" stroke="none" /><path d="M 88.70189139769569 82.29822771554957 l -2.8774834821307005 -4.508414562642488 a26.3484308968689,26.3484308968689 0 0,0 0.3844121234211474,-0.2407188364202876 l 2.799452206337311 4.557277740385706" fill="red" stroke="none" /><line stroke="#e1ed5e" stroke-width="0.3" x1="56.762969772571076" x2="54.21961505331055" y1="26.818313649435495" y2="22.513508569990535" /><path d="M 56.25429882871897 25.957352633546506 a86.0,86.0 0 0,1 42.265352541879196,-11.944610805530505" fill="none" id="id36" stroke="none" /><text fill="#e1ed5e" style="font-size:6.75px; font-family:Arial;" text-anchor="middle"><textPath startOffset="22.20632615414155" xlink:href="#id36">December</textPath></text><path d="M 89.63071344664047 81.73862282372117 l -20.815175038507856 -36.65765821133604 a63.15513512518793,63.15513512518793 0 0,0 0.949961230354609,-0.528652396191142 l 20.181089719081204 37.01052600508737" fill="red" stroke="none" /><path d="M 90.91171255644093 81.06846463323043 l -2.7332002953198185 -5.69344646905763 a27.31551395773623,27.31551395773623 0 0,0 0.42563006364385525,-0.19983902195685335 l 2.634792020376355 5.73965047365449" fill="red" stroke="none" /><path d="M 91.23893434514133 80.91482961587045 l -2.0797475887237393 -4.5305375681967135 a25.98508983767033,25.98508983767033 0 0,0 0.4081117753195704,-0.18310785741317898 l 2.001453694937395 4.565665756126421" fill="red" stroke="none" /><path d="M 92.91201910852362 80.23233633223022 l -3.699102658846991 -10.31642414845863 a31.959560561062165,31.959560561062165 0 0,0 0.5194463410342763,-0.18122462879058926 l 3.5209743137494294 10.37856963042143" fill="red" stroke="none" /><path d="M 93.25333710446033 80.11325718540243 l -1.2922785786476625 -3.809173829534295 a25.022410867681295,25.022410867681295 0 0,0 0.40907730856110514,-0.13486635696038657 l 1.226518447844148 3.8308539107539152" fill="red" stroke="none" /><path d="M 94.63758080256005 79.69619591428918 l -4.773305703103636 -18.07323528218211 a39.69294735723594,39.69294735723594 0 0,0 0.6620993638635234,-0.1687838701061052 l 4.461497450555114 18.15272214845708" fill="red" stroke="none" /><path d="M 96.75951476605007 79.25152402106235 l -0.5963186452025029 -3.818163698495034 a24.864449502208746,24.864449502208746 0 0,0 0.42344278221691856,-0.062404458907973845 l 0.5305068825569355 3.8278626415639767" fill="red" stroke="none" /><path d="M 98.55514903715128 79.0497635885617 l -0.2716500774446012 -3.938906842287107 a24.948263020214313,24.948263020214313 0 0,0 0.42868000539163487,-0.025859148599536575 l 0.20380802321334332 3.94299926026695" fill="red" stroke="none" /></svg>