<?xml version="1.0" encoding="utf-8" ?>
<svg baseProfile="full" height="200mm" version="1.1" viewBox="0,0,200,200" width="200mm" xmlns="http://www.w3.org/2000/svg" xmlns:ev="http://www.w3.org/2001/xml-events" xmlns:xlink="http://www.w3.org/1999/xlink"><defs /><rect fill="#1a1a1a" height="200" width="200" x="0" y="0" /><rect fill="#1a1a1a" height="200" width="180" x="10" y="0" /><text alignment-baseline="middle" fill="#e1ed5e" style="dominant-baseline: central; font-size:9.0px; font-family:Arial;" text-anchor="middle" x="100.0" y="100.0">2026</text><line stroke="#e1ed5e" stroke-width="0.3" x1="100.0" x2="100.0" y1="15.0" y2="10.0" /><path d="M 100.0 14.0 a86.0,86.0 0 0,1 42.46469731375804,11.215312516191453" fill="none" id="id37" stroke="none" /><text fill="#e1ed5e" style="font-size:6.75px; font-family:Arial;" text-anchor="middle"><textPath startOffset="22.20632615414155" xlink:href="#id37">January</textPath></text><path d="M 108.09893153111575 80.62456947434976 l 3.702528016705605 -8.857720809385585 a30.600413097961585,30.600413097961585 0 0,0 0.4842387757513625,0.20732577238626537 l -3.854450550247283 8.79267550903653" fill="#ff0000" stroke="none" /><path d="M 108.43124777332544 80.76684994638697 l 6.906903545626547 -15.755854396682286 a38.20326318923364,38.20326318923364 0 0,0 0.6000056825109084,0.26920505999679817 l -7.177091346604237 15.634629006168957" fill="#ff7c0b" stroke="none" /><path d="M 109.41281617654863 81.2277094730956 l 6.731794697210901 -13.425440745179166 a36.01863905444544,36.01863905444544 0 0,0 0.551839017480661,0.28267337829731887 l -6.961894202280318 13.307574841569346" fill="#ff5908" stroke="none" /><path d="M 109.73455568895987 81.39251694778311 l 7.444670487624021 -14.230395752413099 a37.060114630338006,37.060114630338006 0 0,0 0.5627048155291372,0.3005774247538163 l -7.688520349681469 14.10013960115753" fill="#ff6a09" stroke="none" /><path d="M 110.05341064243156 81.56283822128135 l 17.188707864684513 -31.52273382037767 a56.9045181776312,56.9045181776312 0 0,0 0.8559412626321997,0.476330385946877 l -17.72877321638875 31.222188036870612" fill="#7cff26" stroke="none" /><line stroke="#e1ed5e" stroke-width="0.3" x1="143.23703022742887" x2="145.7803849466894" y1="26.81831364943548" y2="22.513508569990506" /><path d="M 143.74570117128098 25.957352633546492 a86.0,86.0 0 0,1 28.547481713284135,27.462654790039103" fill="none" id="id38" stroke="none" /><text fill="#e1ed5e" style="font-size:6.75px; font-family:Arial;" text-anchor="middle"><textPath startOffset="19.985693538727396" xlink:href="#id38">February</textPath></text><path d="M 110.68208982089419 81.91981866633111 l 24.61114541123227 -41.65607847576811 a69.3832342080619,69.3832342080619 0 0,0 1.023032441872477,0.6163655994400468 l -25.324539919322383 41.226266266869445" fill="#38ff80" stroke="none" /><path d="M 111.2981086023043 82.29822771554956 l 16.087280608737185 -25.205402783421665 a50.90172113539239,50.90172113539239 0 0,0 0.7345190451598631,0.4777516189484539 l -16.518766679681328 24.924752240313683" fill="#caff1d" stroke="none" /><path d="M 111.60114157652 82.49532879139004 l 9.940405853018207 -14.998828778143537 a38.99379151926534,38.99379151926534 0 0,0 0.556302708879138,0.3756180723169772 l -10.197113256303888 14.825498793527888" fill="#ff880c" stroke="none" /><path d="M 113.34407831869373 83.78471172551755 l 11.491955433637214 -13.96464901835004 a39.085255372662246,39.085255372662246 0 0,0 0.5158182829791194,0.4319829778553291 l -11.730631253575451 13.764764883100892" fill="#ff8a0c" stroke="none" /><line stroke="#e1ed5e" stroke-width="0.3" x1="172.23445277983987" x2="176.4835382374775" y1="55.19839476539836" y2="52.563006222186495" /><path d="M 173.08426987136738 54.67131705675599 a86.0,86.0 0 0,1 12.851231095245387,41.99856678651699" fill="none" id="id39" stroke="none" /><text fill="#e1ed5e" style="font-size:6.75px; font-family:Arial;" text-anchor="middle"><textPath startOffset="22.20632615414155" xlink:href="#id39">March</textPath></text><path d="M 117.84615892207809 88.93136811851018 l 25.41062957859762 -15.760304831446751 a50.90129268043146,50.90129268043146 0 0,0 0.45540708292676846,0.7485695031017016 l -25.67815245981061 15.320567555137968" fill="#caff1d" stroke="none" /><path d="M 118.03404312379186 89.2402003453031 l 29.46511496130635 -17.58001417707642 a55.31107544436938,55.31107544436938 0 0,0 0.48078579604816535,0.8218187744519126 l -29.763360431824843 17.070215990270615" fill="#90ff24" stroke="none" /><path d="M 118.3937258080291 89.86733742301442 l 30.11097935282319 -16.58741664571053 a55.37751399628163,55.37751399628163 0 0,0 0.45275574469417434,0.8388876332376246 l -30.39204319673583 16.066648029140445" fill="#8fff24" stroke="none" /><path d="M 118.89224826269711 90.83032412892265 l 30.543915589200854 -14.82501192510443 a54.951609064957665,54.951609064957665 0 0,0 0.40570460574917905,0.8545173672818076 l -30.794578388791788 14.297052142182082" fill="#95ff23" stroke="none" /><path d="M 119.196687751892 91.48605970444005 l 28.071329366799873 -12.449940600944414 a51.70831407593724,51.70831407593724 0 0,0 0.3538554814802219,0.8167472386177614 l -28.281475558122775 11.96489421774005" fill="#bfff1e" stroke="none" /><path d="M 119.47837535516314 92.15188598940014 l 42.530545447757845 -17.136160666424665 a66.85297480501472,66.85297480501472 0 0,0 0.4208759275628151,1.0710833285154409 l -42.81921492520236 16.40152833301344" fill="#34ff5f" stroke="none" /><path d="M 120.37134235888165 94.90015583598534 l 15.207786553603027 -3.8071787384771336 a36.67709736547749,36.67709736547749 0 0,0 0.1480483256301335,0.6137558892426038 l -15.271067679493981 3.5448376175751237" fill="#ff6409" stroke="none" /><path d="M 120.6074358757038 95.95851677861258 l 61.822307627111385 -12.124449664162288 a84.0,84.0 0 0,0 0.26605710436056285,1.4212876901497489 l -62.02185045538181 11.058483896549978" fill="#4dd2ff" stroke="none" /><path d="M 120.73433829027371 96.67025291283417 l 14.893660472781427 -2.391787086822251 a36.08448765279025,36.08448765279025 0 0,0 0.09320813302029628,0.6141251388563899 l -14.932624499241022 2.135062835573779" fill="#ff5a08" stroke="none" /><path d="M 120.83666639777658 97.38593545837742 l 16.363138963077542 -2.052838037354581 a37.49140566272615,37.49140566272615 0 0,0 0.0748215036535286,0.6410249505811857 l -16.396050819734658 1.7708693484485427" fill="#ff710a" stroke="none" /><path d="M 120.91429891909075 98.10471618934814 l 47.44499161199771 -4.299533292825389 a68.63940822049165,68.63940822049165 0 0,0 0.09650542657306815,1.177610643473229 l -47.51197152239027 3.482208732144391" fill="#37ff76" stroke="none" /><line stroke="#e1ed5e" stroke-width="0.3" x1="184.98032266829074" x2="189.97916517819016" y1="98.17113171792111" y2="98.06355123074" /><path d="M 185.9800911702706 98.14961562048488 a86.0,86.0 0 0,1 -9.607161424134198,41.387399972396054" fill="none" id="id40" stroke="none" /><text fill="#e1ed5e" style="font-size:6.75px; font-family:Arial;" text-anchor="middle"><textPath startOffset="21.466115282336823" xlink:href="#id40">April</textPath></text><path d="M 120.99513854157772 99.54816195383933 l 29.89412750179125 -0.6433538952523723 a50.90104953555792,50.90104953555792 0 0,0 0.011312135042059855,0.8761373254177386 l -29.900772643951026 0.128680311774171" fill="#caff1d" stroke="none" /><line stroke="#e1ed5e" stroke-width="0.3" x1="174.80103733775053" x2="179.2010983576182" y1="140.37084112569926" y2="142.7455964860345" /><path d="M 175.68104954172406 140.8457921977663 a86.0,86.0 0 0,1 -30.038265399797805,32.042727171017184" fill="none" id="id41" stroke="none" /><text fill="#e1ed5e" style="font-size:6.75px; font-family:Arial;" text-anchor="middle"><textPath startOffset="22.206326154141568" xlink:href="#id41">May</textPath></text><line stroke="#e1ed5e" stroke-width="0.3" x1="143.8653032363475" x2="146.44561519142675" y1="172.8068346515853" y2="177.08958963109032" /><path d="M 144.38136562736335 173.6633856474863 a86.0,86.0 0 0,1 -40.68145358897372,12.25698825130547" fill="none" id="id42" stroke="none" /><text fill="#e1ed5e" style="font-size:6.75px; font-family:Arial;" text-anchor="middle"><textPath startOffset="21.466115282336833" xlink:href="#id42">June</textPath></text><line stroke="#e1ed5e" stroke-width="0.3" x1="102.19456741930631" x2="102.32365962044197" y1="184.97166512339345" y2="189.96999836594603" /><path d="M 102.22038585953345 185.97133177190398 a86.0,86.0 0 0,1 -42.740103519485714,-10.115201625700543" fill="none" id="id43" stroke="none" /><text fill="#e1ed5e" style="font-size:6.75px; font-family:Arial;" text-anchor="middle"><textPath startOffset="22.20632615414155" xlink:href="#id43">July</textPath></text><line stroke="#e1ed5e" stroke-width="0.3" x1="58.666819895761336" x2="56.23545636021788" y1="174.27360380694188" y2="178.64263932499728" /><path d="M 58.180547188652646 175.14741091055294 a86.0,86.0 0 0,1 -31.652253787137756,-30.449443065178592" fill="none" id="id44" stroke="none" /><text fill="#e1ed5e" style="font-size:6.75px; font-family:Arial;" text-anchor="middle"><textPath startOffset="22.20632615414155" xlink:href="#id44">August</textPath></text><line stroke="#e1ed5e" stroke-width="0.3" x1="26.63291911575756" x2="22.317208475507996" y1="142.92168965132927" y2="145.44649492493687" /><path d="M 25.769776987707644 143.4266507060508 a86.0,86.0 0 0,1 -11.730757126820373,-40.83630448921669" fill="none" id="id45" stroke="none" /><text fill="#e1ed5e" style="font-size:6.75px; font-family:Arial;" text-anchor="middle"><textPath startOffset="21.46611528233685" xlink:href="#id45">September</textPath></text><line stroke="#e1ed5e" stroke-width="0.3" x1="15.007084014347285" x2="10.007500721073583" y1="101.09737516637583" y2="101.16192664675087" /><path d="M 14.007167355692545 101.11028546245083 a86.0,86.0 0 0,1 10.666146001902534,-42.60595125391555" fill="none" id="id46" stroke="none" /><text fill="#e1ed5e" style="font-size:6.75px; font-family:Arial;" text-anchor="middle"><textPath startOffset="22.20632615414155" xlink:href="#id46">October</textPath></text><line stroke="#e1ed5e" stroke-width="0.3" x1="26.266209847984243" x2="21.928928074336255" y1="57.711370442889674" y2="55.22380399835377" /><path d="M 25.398753493254645 57.213857153982495 a86.0,86.0 0 0,1 29.58750427330803,-30.492523968695096" fill="none" id="id47" stroke="none" /><text fill="#e1ed5e" style="font-size:6.75px; font-family:Arial;" text-anchor="middle"><textPath startOffset="21.46611528233685" xlink:href="#id47">November</textPath></text><line stroke="#e1ed5e" stroke-width="0.3" x1="56.762969772571076" x2="54.21961505331055" y1="26.818313649435495" y2="22.513508569990535" /><path d="M 56.25429882871897 25.957352633546506 a86.0,86.0 0 0,1 42.265352541879196,-11.944610805530505" fill="none" id="id48" stroke="none" /><text fill="#e1ed5e" style="font-size:6.75px; font-family:Arial;" text-anchor="middle"><textPath startOffset="22.20632615414155" xlink:href="#id48">December</textPath></text></svg>